<svg xmlns="http://www.w3.org/2000/svg" viewBox="0 0 800 480" width="800" height="480">
<defs>
  <radialGradient id="glow" cx="30%" cy="20%" r="80%"><stop offset="0" stop-color="#5ce882" stop-opacity=".35"/><stop offset=".55" stop-color="#5ce882" stop-opacity=".06"/><stop offset="1" stop-color="#000" stop-opacity="0"/></radialGradient>
  <radialGradient id="vig" cx="50%" cy="50%" r="75%"><stop offset=".6" stop-color="#000" stop-opacity="0"/><stop offset="1" stop-color="#000" stop-opacity=".7"/></radialGradient>
  <pattern id="grid" width="32" height="32" patternUnits="userSpaceOnUse"><path d="M32 0H0V32" fill="none" stroke="#fff" stroke-opacity=".05"/></pattern>
  <filter id="grain" x="0" y="0" width="100%" height="100%"><feTurbulence type="fractalNoise" baseFrequency=".85" numOctaves="2" stitchTiles="stitch"/><feColorMatrix values="0 0 0 0 1  0 0 0 0 1  0 0 0 0 1  0 0 0 .07 0"/></filter>
  <filter id="soft" x="-20%" y="-20%" width="140%" height="140%"><feGaussianBlur stdDeviation="14"/></filter>
  <filter id="shadow" x="-20%" y="-20%" width="140%" height="160%"><feDropShadow dx="0" dy="18" stdDeviation="18" flood-color="#000" flood-opacity=".6"/></filter>
  
</defs>
<rect width="800" height="480" fill="#0a0a0b"/>
<rect width="800" height="480" fill="url(#grid)"/>
<rect width="800" height="480" fill="url(#glow)"/>
<g filter="url(#shadow)" transform="translate(120 58) rotate(-5)">
  <rect width="330" height="420" rx="6" fill="#f2eee4"/>
  <text x="34" y="52" font-family="Courier New, ui-monospace, monospace" font-size="15" font-weight="700" fill="#111">FADE IN:</text>
  <text x="34" y="84" font-family="Courier New, ui-monospace, monospace" font-size="13" font-weight="700" fill="#111">EXT. ROOFTOP — DUSK</text>
  <rect x="34" y="104" width="262" height="6" rx="3" fill="#8d8a83" fill-opacity="1"/><rect x="34" y="117" width="240" height="6" rx="3" fill="#8d8a83" fill-opacity="1"/><rect x="34" y="130" width="190" height="6" rx="3" fill="#8d8a83" fill-opacity="1"/>
  <text x="165" y="170" font-family="Courier New, ui-monospace, monospace" font-size="13" font-weight="700" fill="#111" text-anchor="middle">MEERA</text>
  <rect x="86" y="182" width="170" height="30" fill="#5ce882" fill-opacity=".55"/>
  <rect x="90" y="186" width="160" height="6" rx="3" fill="#3d3b37" fill-opacity="1"/><rect x="90" y="199" width="130" height="6" rx="3" fill="#3d3b37" fill-opacity="1"/>
  <rect x="34" y="236" width="262" height="6" rx="3" fill="#8d8a83" fill-opacity="1"/><rect x="34" y="249" width="250" height="6" rx="3" fill="#8d8a83" fill-opacity="1"/><rect x="34" y="262" width="210" height="6" rx="3" fill="#8d8a83" fill-opacity="1"/><rect x="34" y="275" width="236" height="6" rx="3" fill="#8d8a83" fill-opacity="1"/>
  <text x="165" y="318" font-family="Courier New, ui-monospace, monospace" font-size="13" font-weight="700" fill="#111" text-anchor="middle">ARJUN (V.O.)</text>
  <rect x="90" y="332" width="150" height="6" rx="3" fill="#3d3b37" fill-opacity="1"/><rect x="90" y="345" width="166" height="6" rx="3" fill="#3d3b37" fill-opacity="1"/><rect x="90" y="358" width="120" height="6" rx="3" fill="#3d3b37" fill-opacity="1"/>
  <text x="296" y="404" font-family="Courier New, ui-monospace, monospace" font-size="11" fill="#77746d" text-anchor="end">1.</text>
</g><g transform="translate(490 70) rotate(4)" filter="url(#shadow)">
  <rect width="220" height="150" rx="10" fill="#161617" stroke="#fff" stroke-opacity=".12"/>
  <text x="20" y="36" font-family="Courier New, ui-monospace, monospace" font-size="14" font-weight="700" letter-spacing="2" fill="#5ce882" fill-opacity="1" text-anchor="start">CONCEPT</text>
  <text x="20" y="72" font-family="Georgia, serif" font-size="22" fill="#fff">Letters across</text>
  <text x="20" y="100" font-family="Georgia, serif" font-size="22" fill="#fff" font-style="italic">a lifetime</text>
  <rect x="20" y="118" width="26" height="14" rx="3" fill="#e8b36b"/><rect x="52" y="118" width="26" height="14" rx="3" fill="#2f5d62"/><rect x="84" y="118" width="26" height="14" rx="3" fill="#c94f3d"/><rect x="116" y="118" width="26" height="14" rx="3" fill="#f2eee4"/>
</g>
<g transform="translate(520 250) rotate(-3)" filter="url(#shadow)">
  <rect width="200" height="150" rx="10" fill="#5ce882"/>
  <text x="18" y="34" font-family="Courier New, ui-monospace, monospace" font-size="14" font-weight="700" letter-spacing="2" fill="#0a0a0b" fill-opacity="1" text-anchor="start">TONE</text>
  <text x="18" y="70" font-family="Courier New, ui-monospace, monospace" font-size="15" font-weight="700" fill="#0a0a0b">warm · nostalgic</text>
  <text x="18" y="94" font-family="Courier New, ui-monospace, monospace" font-size="15" font-weight="700" fill="#0a0a0b">handheld · 35mm</text>
  <text x="18" y="118" font-family="Courier New, ui-monospace, monospace" font-size="15" font-weight="700" fill="#0a0a0b">60s · 16:9</text>
</g>
<path d="M430 410 C 470 380, 500 440, 560 420" fill="none" stroke="#5ce882" stroke-width="3" stroke-linecap="round" stroke-dasharray="2 9"/>
<rect width="800" height="480" fill="url(#vig)"/>
<rect width="800" height="480" filter="url(#grain)"/>
</svg>