<svg xmlns="http://www.w3.org/2000/svg" viewBox="0 0 800 480" width="800" height="480">
<defs>
  <radialGradient id="glow" cx="30%" cy="20%" r="80%"><stop offset="0" stop-color="#ff5d4b" stop-opacity=".35"/><stop offset=".55" stop-color="#ff5d4b" stop-opacity=".06"/><stop offset="1" stop-color="#000" stop-opacity="0"/></radialGradient>
  <radialGradient id="vig" cx="50%" cy="50%" r="75%"><stop offset=".6" stop-color="#000" stop-opacity="0"/><stop offset="1" stop-color="#000" stop-opacity=".7"/></radialGradient>
  <pattern id="grid" width="32" height="32" patternUnits="userSpaceOnUse"><path d="M32 0H0V32" fill="none" stroke="#fff" stroke-opacity=".05"/></pattern>
  <filter id="grain" x="0" y="0" width="100%" height="100%"><feTurbulence type="fractalNoise" baseFrequency=".85" numOctaves="2" stitchTiles="stitch"/><feColorMatrix values="0 0 0 0 1  0 0 0 0 1  0 0 0 0 1  0 0 0 .07 0"/></filter>
  <filter id="soft" x="-20%" y="-20%" width="140%" height="140%"><feGaussianBlur stdDeviation="14"/></filter>
  <filter id="shadow" x="-20%" y="-20%" width="140%" height="160%"><feDropShadow dx="0" dy="18" stdDeviation="18" flood-color="#000" flood-opacity=".6"/></filter>
  <linearGradient id="sky" x1="0" y1="0" x2="0" y2="1"><stop offset="0" stop-color="#1b1030"/><stop offset=".7" stop-color="#e2553f"/><stop offset="1" stop-color="#f7b267"/></linearGradient>
</defs>
<rect width="800" height="480" fill="#0a0a0b"/>
<rect width="800" height="480" fill="url(#grid)"/>
<rect width="800" height="480" fill="url(#glow)"/>
<text x="20" y="48" font-family="Courier New, ui-monospace, monospace" font-size="14" font-weight="700" letter-spacing="2" fill="#ff5d4b" fill-opacity="1" text-anchor="start">STILL → MOTION</text><text x="780" y="48" font-family="Courier New, ui-monospace, monospace" font-size="12" font-weight="700" letter-spacing="2" fill="#ff5d4b" fill-opacity="0.7" text-anchor="end">24 FPS · 5.0 S</text><g transform="translate(0 70)"><rect x="-10" y="0" width="820" height="200" fill="#111"/><rect x="6" y="10" width="16" height="12" rx="3" fill="#0a0a0b"/><rect x="6" y="178" width="16" height="12" rx="3" fill="#0a0a0b"/><rect x="38" y="10" width="16" height="12" rx="3" fill="#0a0a0b"/><rect x="38" y="178" width="16" height="12" rx="3" fill="#0a0a0b"/><rect x="70" y="10" width="16" height="12" rx="3" fill="#0a0a0b"/><rect x="70" y="178" width="16" height="12" rx="3" fill="#0a0a0b"/><rect x="102" y="10" width="16" height="12" rx="3" fill="#0a0a0b"/><rect x="102" y="178" width="16" height="12" rx="3" fill="#0a0a0b"/><rect x="134" y="10" width="16" height="12" rx="3" fill="#0a0a0b"/><rect x="134" y="178" width="16" height="12" rx="3" fill="#0a0a0b"/><rect x="166" y="10" width="16" height="12" rx="3" fill="#0a0a0b"/><rect x="166" y="178" width="16" height="12" rx="3" fill="#0a0a0b"/><rect x="198" y="10" width="16" height="12" rx="3" fill="#0a0a0b"/><rect x="198" y="178" width="16" height="12" rx="3" fill="#0a0a0b"/><rect x="230" y="10" width="16" height="12" rx="3" fill="#0a0a0b"/><rect x="230" y="178" width="16" height="12" rx="3" fill="#0a0a0b"/><rect x="262" y="10" width="16" height="12" rx="3" fill="#0a0a0b"/><rect x="262" y="178" width="16" height="12" rx="3" fill="#0a0a0b"/><rect x="294" y="10" width="16" height="12" rx="3" fill="#0a0a0b"/><rect x="294" y="178" width="16" height="12" rx="3" fill="#0a0a0b"/><rect x="326" y="10" width="16" height="12" rx="3" fill="#0a0a0b"/><rect x="326" y="178" width="16" height="12" rx="3" fill="#0a0a0b"/><rect x="358" y="10" width="16" height="12" rx="3" fill="#0a0a0b"/><rect x="358" y="178" width="16" height="12" rx="3" fill="#0a0a0b"/><rect x="390" y="10" width="16" height="12" rx="3" fill="#0a0a0b"/><rect x="390" y="178" width="16" height="12" rx="3" fill="#0a0a0b"/><rect x="422" y="10" width="16" height="12" rx="3" fill="#0a0a0b"/><rect x="422" y="178" width="16" height="12" rx="3" fill="#0a0a0b"/><rect x="454" y="10" width="16" height="12" rx="3" fill="#0a0a0b"/><rect x="454" y="178" width="16" height="12" rx="3" fill="#0a0a0b"/><rect x="486" y="10" width="16" height="12" rx="3" fill="#0a0a0b"/><rect x="486" y="178" width="16" height="12" rx="3" fill="#0a0a0b"/><rect x="518" y="10" width="16" height="12" rx="3" fill="#0a0a0b"/><rect x="518" y="178" width="16" height="12" rx="3" fill="#0a0a0b"/><rect x="550" y="10" width="16" height="12" rx="3" fill="#0a0a0b"/><rect x="550" y="178" width="16" height="12" rx="3" fill="#0a0a0b"/><rect x="582" y="10" width="16" height="12" rx="3" fill="#0a0a0b"/><rect x="582" y="178" width="16" height="12" rx="3" fill="#0a0a0b"/><rect x="614" y="10" width="16" height="12" rx="3" fill="#0a0a0b"/><rect x="614" y="178" width="16" height="12" rx="3" fill="#0a0a0b"/><rect x="646" y="10" width="16" height="12" rx="3" fill="#0a0a0b"/><rect x="646" y="178" width="16" height="12" rx="3" fill="#0a0a0b"/><rect x="678" y="10" width="16" height="12" rx="3" fill="#0a0a0b"/><rect x="678" y="178" width="16" height="12" rx="3" fill="#0a0a0b"/><rect x="710" y="10" width="16" height="12" rx="3" fill="#0a0a0b"/><rect x="710" y="178" width="16" height="12" rx="3" fill="#0a0a0b"/><rect x="742" y="10" width="16" height="12" rx="3" fill="#0a0a0b"/><rect x="742" y="178" width="16" height="12" rx="3" fill="#0a0a0b"/><rect x="774" y="10" width="16" height="12" rx="3" fill="#0a0a0b"/><rect x="774" y="178" width="16" height="12" rx="3" fill="#0a0a0b"/><g transform="translate(20 34)"><clipPath id="c0"><rect width="140" height="132" rx="6"/></clipPath><g clip-path="url(#c0)">
<rect width="140" height="132" fill="url(#sky)"/><circle cx="30" cy="72" r="16" fill="#ffe3a8"/>
<path d="M0 108 L30 88 L60 100 L96 80 L140 104 V132 H0z" fill="#12091c"/>
<path d="M50 132 v-26 q6-8 12 0 v26z" fill="#12091c"/></g>
<rect width="140" height="132" rx="6" fill="none" stroke="#ff5d4b" stroke-width="3"/></g><g transform="translate(176 34)"><clipPath id="c1"><rect width="140" height="132" rx="6"/></clipPath><g clip-path="url(#c1)">
<rect width="140" height="132" fill="url(#sky)"/><circle cx="50" cy="44" r="18" fill="#ffe3a8"/>
<path d="M0 108 L32 88 L62 100 L94 80 L140 104 V132 H0z" fill="#12091c"/>
<path d="M55 132 v-26 q6-8 12 0 v26z" fill="#12091c"/></g>
</g><g transform="translate(332 34)"><clipPath id="c2"><rect width="140" height="132" rx="6"/></clipPath><g clip-path="url(#c2)">
<rect width="140" height="132" fill="url(#sky)"/><circle cx="70" cy="32" r="19" fill="#ffe3a8"/>
<path d="M0 108 L35 88 L63 100 L93 80 L140 104 V132 H0z" fill="#12091c"/>
<path d="M60 132 v-26 q6-8 12 0 v26z" fill="#12091c"/></g>
</g><g transform="translate(488 34)"><clipPath id="c3"><rect width="140" height="132" rx="6"/></clipPath><g clip-path="url(#c3)">
<rect width="140" height="132" fill="url(#sky)"/><circle cx="90" cy="44" r="20" fill="#ffe3a8"/>
<path d="M0 108 L38 88 L64 100 L92 80 L140 104 V132 H0z" fill="#12091c"/>
<path d="M65 132 v-26 q6-8 12 0 v26z" fill="#12091c"/></g>
</g><g transform="translate(644 34)"><clipPath id="c4"><rect width="140" height="132" rx="6"/></clipPath><g clip-path="url(#c4)">
<rect width="140" height="132" fill="url(#sky)"/><circle cx="110" cy="72" r="22" fill="#ffe3a8"/>
<path d="M0 108 L40 88 L66 100 L90 80 L140 104 V132 H0z" fill="#12091c"/>
<path d="M70 132 v-26 q6-8 12 0 v26z" fill="#12091c"/></g>
<rect width="140" height="132" rx="6" fill="none" stroke="#ff5d4b" stroke-width="3"/></g></g><g transform="translate(20 316)"><rect width="760" height="110" rx="12" fill="#121213" stroke="#fff" stroke-opacity=".12"/>
<path d="M20 16 v18" stroke="#fff" stroke-opacity=".35"/><path d="M56 16 v10" stroke="#fff" stroke-opacity=".35"/><path d="M92 16 v10" stroke="#fff" stroke-opacity=".35"/><path d="M128 16 v10" stroke="#fff" stroke-opacity=".35"/><path d="M164 16 v10" stroke="#fff" stroke-opacity=".35"/><path d="M200 16 v18" stroke="#fff" stroke-opacity=".35"/><path d="M236 16 v10" stroke="#fff" stroke-opacity=".35"/><path d="M272 16 v10" stroke="#fff" stroke-opacity=".35"/><path d="M308 16 v10" stroke="#fff" stroke-opacity=".35"/><path d="M344 16 v10" stroke="#fff" stroke-opacity=".35"/><path d="M380 16 v18" stroke="#fff" stroke-opacity=".35"/><path d="M416 16 v10" stroke="#fff" stroke-opacity=".35"/><path d="M452 16 v10" stroke="#fff" stroke-opacity=".35"/><path d="M488 16 v10" stroke="#fff" stroke-opacity=".35"/><path d="M524 16 v10" stroke="#fff" stroke-opacity=".35"/><path d="M560 16 v18" stroke="#fff" stroke-opacity=".35"/><path d="M596 16 v10" stroke="#fff" stroke-opacity=".35"/><path d="M632 16 v10" stroke="#fff" stroke-opacity=".35"/><path d="M668 16 v10" stroke="#fff" stroke-opacity=".35"/><path d="M704 16 v10" stroke="#fff" stroke-opacity=".35"/><path d="M740 16 v18" stroke="#fff" stroke-opacity=".35"/>
<path d="M20 86 C 200 86, 260 40, 380 40 S 560 86, 740 60" fill="none" stroke="#ff5d4b" stroke-width="3"/>
<rect x="13" y="79" width="14" height="14" fill="#ff5d4b" transform="rotate(45 20 86)"/><rect x="373" y="33" width="14" height="14" fill="#ff5d4b" transform="rotate(45 380 40)"/><rect x="733" y="53" width="14" height="14" fill="#ff5d4b" transform="rotate(45 740 60)"/>
<path d="M470 10 V100" stroke="#fff" stroke-width="2"/><path d="M462 8 h16 l-8 10z" fill="#fff"/></g>
<rect width="800" height="480" fill="url(#vig)"/>
<rect width="800" height="480" filter="url(#grain)"/>
</svg>